<?xml version="1.0" encoding="UTF-8"?>
<svg preserveAspectRatio="none" width="110px" height="15px" viewBox="0 0 110 15" version="1.1" xmlns="http://www.w3.org/2000/svg" xmlns:xlink="http://www.w3.org/1999/xlink">
    <title>Artboard</title>
    <g id="Artboard" stroke="none" stroke-width="1" fill="none" fill-rule="evenodd">
        <g id="begambleawareorg_white_eps" transform="translate(2.000000, 2.000000)" fill="#FFFFFE">
            <path d="M2.66877451,6.3100031 L2.66877451,8.88338501 L4.67029378,8.88338501 C5.43281839,8.93108131 6.09995039,8.40679172 6.14764669,7.64426711 C6.14764669,7.64426711 6.14764669,7.64426711 6.14764669,7.59669405 C6.14764669,6.78647314 5.48039144,6.2623068 4.47963181,6.2623068 L2.66877451,6.3100031 Z M2.66877451,2.5451996 L2.66877451,4.83265018 L4.52732811,4.83265018 C5.19446012,4.88034648 5.81401907,4.4037532 5.86171537,3.73649795 C5.86171537,3.68892489 5.86171537,3.64122859 5.86171537,3.64122859 C5.86171537,3.02166964 5.24215642,2.5451996 4.38436245,2.5451996 L2.66877451,2.5451996 Z M0,1.02015038 L3.62183784,1.02015038 C5.24215642,1.02015038 5.81401907,1.06784668 6.29061236,1.2583854 C7.19597938,1.68740563 7.72026897,2.5451996 7.72026897,3.54595923 C7.72026897,4.49902256 7.43433765,4.97561584 6.48115107,5.45220913 C7.4819107,5.78571351 8.14916596,6.73890009 8.0538966,7.78723277 C8.0538966,9.3599783 6.8147787,10.408311 5.00379816,10.408311 L0,10.408311 L0,8.88338501 L0.714828308,8.88338501 L0.714828308,2.5451996 L0,2.5451996 L0,1.02015038 L0,1.02015038 Z" id="Fill-1"></path>
            <path d="M14.1537237,5.97637547 C14.1537237,5.16627781 13.4865917,4.54671886 12.7240671,4.54671886 L12.6764941,4.54671886 C11.8662732,4.54671886 11.1991412,5.16627781 11.0561755,5.92867917 L14.1537237,5.97637547 Z M15.9647043,8.0731641 C15.6310767,9.64590962 14.3443857,10.5989729 12.6287978,10.5989729 C10.6272785,10.5989729 9.14992559,9.02635067 9.14992559,6.83416944 C9.14992559,4.64198822 10.6272785,3.06936594 12.6287978,3.06936594 C13.7248268,3.06936594 14.7732827,3.59353228 15.3928416,4.54671886 C15.8694349,5.35681653 16.1553663,6.2623068 16.1076699,7.21537013 L10.9609061,7.21537013 C11.1514448,9.07404697 12.3428664,9.16931633 12.6764941,9.16931633 C13.3436261,9.21701263 13.963185,8.74041935 14.153847,8.1208604 L15.9647043,8.0731641 L15.9647043,8.0731641 Z" id="Fill-2"></path>
            <path d="M21.921689,5.73814045 L25.2098992,5.73814045 L25.2098992,10.408311 L24.1614433,10.408311 L24.1614433,8.93108131 C23.9709046,9.26458569 23.7325463,9.55051701 23.446615,9.83644834 C22.8271793,10.3607379 22.0646547,10.6466693 21.3021301,10.6466693 C19.1099488,10.6466693 17.3943609,8.50218433 17.3943609,5.73814045 C17.3943609,2.97409658 19.1099488,0.781915355 21.254557,0.781915355 C22.4458554,0.734219053 23.4943113,1.4014743 24.0661739,2.40223394 L24.0661739,0.924881017 L25.0669336,0.924881017 L25.0669336,3.92715991 L24.0186009,3.92715991 C23.9232083,3.49826293 23.7325463,3.11706224 23.4943113,2.78343462 C23.017718,2.16387567 22.2553166,1.78267499 21.492792,1.73497868 C20.3490667,1.73497868 18.6334788,2.73573831 18.6334788,5.64274785 C18.6334788,7.93032168 19.8724735,9.59821332 21.492792,9.59821332 C22.779483,9.55051701 23.8279389,8.59745369 24.0661739,7.35833579 C24.1138702,7.12010077 24.1138702,6.83416944 24.1138702,6.59593442 L21.8739927,6.59593442 L21.921689,5.73814045" id="Fill-3"></path>
            <path d="M31.166884,6.73890009 L30.499752,6.83416944 C28.3075707,7.12010077 27.5927424,7.50130145 27.5927424,8.40679172 C27.6404387,9.21701263 28.3075707,9.78887528 29.0700953,9.78887528 C30.118428,9.74117898 31.0239183,8.97865437 31.166884,7.93019843 L31.166884,6.73890009 Z M33.2160995,10.4560073 L31.166884,10.4560073 L31.166884,9.16931633 C30.6902907,10.0748066 29.7372273,10.5989729 28.7364677,10.5989729 C27.5450461,10.6942423 26.4965902,9.74117898 26.4013208,8.54975738 C26.4013208,8.50218433 26.4013208,8.45448802 26.4013208,8.40679172 C26.4013208,7.02483141 27.5927424,6.35757616 30.4520557,6.07164483 L31.1191877,6.02407178 L31.1191877,5.30924347 C31.1191877,4.49902256 30.499752,3.97485621 29.4989923,3.97485621 C28.4982327,3.97485621 27.9739431,4.30836059 27.7832811,5.26154717 L26.6872522,5.26154717 C26.7825215,4.68968452 27.0684528,4.16539493 27.4973498,3.78419425 C28.0216394,3.35529726 28.7364677,3.1646353 29.4035997,3.1646353 C30.8809526,3.1646353 32.1200705,3.83189055 32.1200705,5.64274785 L32.1200705,9.59821332 L33.1208302,9.59821332 L33.2160995,10.4560073 L33.2160995,10.4560073 Z" id="Fill-4"></path>
            <path d="M36.2183784,4.59429192 C36.552006,4.11782187 37.171565,3.11706224 38.5059523,3.11706224 C39.4590156,3.11706224 39.9831819,3.59353228 40.1738439,4.59429192 C40.3645059,4.26078754 40.5550446,3.97485621 40.8410991,3.68892489 C41.2699961,3.30760096 41.7941625,3.06936594 42.3660251,3.06936594 C43.4620541,3.06936594 44.0816131,3.78419425 44.0816131,5.02331215 L44.0816131,9.55051701 L45.0823727,9.55051701 L45.0823727,10.408311 L43.0808534,10.408311 L43.0808534,5.40451283 C43.0808534,4.4037532 42.7472258,3.92715991 42.0323975,3.92715991 C40.7934028,3.92715991 40.1261476,5.40451283 40.1261476,5.92867917 L40.1261476,9.55051701 L41.1746035,9.55051701 L41.1746035,10.408311 L39.0778149,10.408311 L39.0778149,5.26154717 C39.0778149,4.35605689 38.7441873,3.97485621 38.029359,3.97485621 C36.93333,3.97485621 36.1231091,5.35681653 36.1231091,6.02407178 L36.1231091,9.59821332 L37.171565,9.59821332 L37.171565,10.4560073 L34.0738935,10.4560073 L34.0738935,9.59821332 L35.1223494,9.59821332 L35.1223494,4.07012557 L34.0738935,4.07012557 L34.0738935,3.2123316 L36.1708054,3.2123316 L36.2183784,4.59429192" id="Fill-5"></path>
            <path d="M48.1800442,7.40603209 C48.1800442,8.59745369 49.0855345,9.55051701 50.2292597,9.64590962 C51.4682544,9.64590962 52.230779,8.54975738 52.230779,6.78647314 C52.230779,5.02331215 51.4206813,3.97485621 50.2292597,3.97485621 C49.1808038,3.97485621 48.1323479,5.11858151 48.1323479,6.16703744 L48.1800442,7.40603209 Z M46.1785249,0.591253391 L48.1800442,0.591253391 L48.1800442,4.73738082 C48.4659755,4.21309123 49.2760732,3.1646353 50.5151911,3.1646353 C52.1355097,3.1646353 53.3745043,4.83265018 53.3745043,6.9294388 C53.3745043,8.88338501 52.040117,10.5512766 50.5151911,10.5512766 C49.2285001,10.5512766 48.6089412,9.69348268 48.1800442,9.12162003 L48.1800442,10.4560073 L46.1308286,10.4560073 L46.1308286,9.59821332 L47.1315882,9.59821332 L47.1315882,1.44904736 L46.1785249,1.44904736 L46.1785249,0.591253391 L46.1785249,0.591253391 Z" id="Fill-6"></path>
            <polyline id="Fill-7" points="53.985929 0.591253391 56.0351446 0.591253391 56.0351446 9.59821332 56.9882079 9.59821332 56.9882079 10.4560073 53.9382327 10.4560073 53.9382327 9.59821332 54.9866886 9.59821332 54.9866886 1.4014743 53.985929 1.4014743 53.985929 0.591253391"></polyline>
            <path d="M62.9451926,6.2623068 C62.9451926,5.59517479 62.7069576,4.97561584 62.2303643,4.45132625 C61.8968599,4.16539493 61.4678397,3.97485621 61.0389427,4.02242927 C60.1335757,4.07012557 59.3710511,4.68968452 59.1328161,5.54747849 C59.0851198,5.78571351 58.9898504,6.02407178 58.9898504,6.2623068 L62.9451926,6.2623068 Z M63.9936486,8.45448802 C63.8983792,8.88338501 63.7077172,9.21701263 63.4217859,9.55051701 C62.8499233,10.2177723 62.0398256,10.5989729 61.1343353,10.5989729 C59.1803891,10.5989729 57.7984288,9.07404697 57.7984288,6.88186575 C57.7984288,4.78495388 59.1803891,3.1646353 60.9436734,3.1646353 C62.7069576,3.1646353 64.1366142,4.54671886 64.1366142,7.07240446 L58.9421541,7.07240446 C59.0374235,8.1208604 59.2757817,8.74041935 59.7522518,9.21701263 C60.1335757,9.55051701 60.6100457,9.74117898 61.086639,9.74117898 C61.8968599,9.74117898 62.4210263,9.3599783 62.802227,8.50206108 L63.9936486,8.45448802 L63.9936486,8.45448802 Z" id="Fill-8"></path>
            <path d="M69.664702,2.78343462 L68.4257073,6.97713511 L70.9036966,6.97713511 L69.664702,2.78343462 Z M68.5209767,1.02015038 L70.8084273,1.02015038 L73.4295055,8.93108131 L74.1443338,8.93108131 L74.1443338,10.4560073 L71.9998488,10.4560073 L71.3802899,8.40679172 L68.0443834,8.40679172 L67.4248244,10.4560073 L65.2326432,10.4560073 L65.2326432,8.93108131 L65.9475948,8.93108131 L68.5209767,1.02015038 L68.5209767,1.02015038 Z" id="Fill-9"></path>
            <polyline id="Fill-10" points="74.0490644 3.2600279 76.9083776 3.2600279 76.9083776 4.64198822 76.1935493 4.64198822 77.194309 8.88338501 78.3857306 3.2600279 80.2442842 3.2600279 81.4357058 8.78811565 82.3887691 4.64198822 81.6739408 4.64198822 81.6739408 3.2600279 84.533254 3.2600279 84.533254 4.64198822 83.9138183 4.64198822 82.3887691 10.408311 80.4825192 10.408311 79.2912208 5.45220913 78.1473723 10.408311 76.2412456 10.408311 74.6685001 4.64198822 74.0490644 4.64198822 74.0490644 3.2600279"></polyline>
            <path d="M89.5848717,7.07240446 C87.9168568,7.21537013 86.8208278,7.35833579 86.8208278,8.35909542 C86.8208278,8.93108131 87.2972979,9.31228199 88.0121262,9.31228199 C88.8700434,9.31228199 89.5848717,8.64514999 89.6324448,7.78723277 L89.6324448,7.07240446 L89.5848717,7.07240446 Z M91.3004597,9.07404697 L91.9198954,9.07404697 L91.9198954,10.4560073 L89.6801411,10.4560073 L89.6801411,9.59821332 C89.1558515,10.2653453 88.3457538,10.5989729 87.4879598,10.5989729 C86.0583032,10.5989729 84.962151,9.64590962 84.962151,8.35909542 C84.962151,6.2623068 87.3449942,6.02407178 89.6324448,5.83340981 C89.6324448,4.73725758 89.2512441,4.4037532 88.3457538,4.4037532 C87.4402635,4.4037532 87.1067592,4.83265018 87.0590629,5.49978219 L87.0590629,5.54747849 L85.3434749,5.49978219 C85.4387443,4.07012557 86.5824696,3.1646353 88.2980575,3.1646353 C90.2997,3.1646353 91.3480327,4.07012557 91.3480327,5.69044415 L91.3004597,9.07404697 L91.3004597,9.07404697 Z" id="Fill-11"></path>
            <path d="M95.2989381,4.4037532 C95.7755314,3.49826293 96.2996977,3.11706224 97.1097954,3.11706224 C97.3957267,3.11706224 97.634085,3.1646353 97.9200163,3.2123316 L97.9200163,4.88034648 C97.634085,4.83265018 97.3481536,4.78495388 97.0622223,4.78495388 C96.156732,4.73738082 95.3942074,5.40451283 95.3466344,6.2623068 L95.3466344,9.02635067 L96.2044283,9.02635067 L96.2044283,10.408311 L92.8685218,10.408311 L92.8685218,9.02635067 L93.5833501,9.02635067 L93.5833501,4.64198822 L92.8685218,4.64198822 L92.8685218,3.2600279 L95.2989381,3.2600279 L95.2989381,4.4037532" id="Fill-12"></path>
            <path d="M103.257442,5.97637547 C103.257442,5.16627781 102.59031,4.54671886 101.827785,4.54671886 L101.780089,4.54671886 C100.969991,4.54671886 100.302736,5.16627781 100.159771,5.92867917 L103.257442,5.97637547 Z M105.115996,8.0731641 C104.782368,9.64590962 103.495677,10.5989729 101.780089,10.5989729 C99.7785699,10.5989729 98.301217,9.02635067 98.301217,6.83416944 C98.301217,4.64198822 99.7785699,3.06936594 101.780089,3.06936594 C102.876241,3.06936594 103.924574,3.59353228 104.544133,4.54671886 C105.020726,5.35681653 105.306658,6.2623068 105.258961,7.21537013 L100.112198,7.21537013 C100.302736,9.07404697 101.494158,9.16931633 101.827785,9.16931633 C102.494917,9.21701263 103.114476,8.74041935 103.305138,8.1208604 L105.115996,8.0731641 L105.115996,8.0731641 Z" id="Fill-13"></path>
        </g>
    </g>
</svg>