<?xml version="1.0" encoding="UTF-8"?>
<svg width="39px" height="27px" viewBox="0 0 39 27" version="1.1" xmlns="http://www.w3.org/2000/svg" xmlns:xlink="http://www.w3.org/1999/xlink">
    <title>Artboard</title>
    <g id="Artboard" stroke="none" stroke-width="1" fill="none" fill-rule="evenodd">
        <path d="M34.7592681,3.86233288 C30.3928365,1.13072617 25.0020367,0.0604193909 19.9794393,0.002442214 C14.6472352,-0.05900825 8.85787949,1.03293978 4.25257818,3.98737122 C2.27933009,5.25351795 -1.36626951,8.20821657 0.531226544,10.8230674 C2.75073473,13.8830333 7.62578719,13.4673076 10.8115957,12.6224973 C12.4285189,12.1958173 16.9559566,10.9807012 16.8284715,8.88283579 C16.707585,6.90519956 12.9769953,7.02195544 11.5340114,7.14619225 C9.24983688,7.34149785 7.95255031,5.83863324 9.86245175,4.5481735 C13.0535392,2.39500267 27.4385072,0.660229355 25.9411508,6.96825308 C25.4330579,9.10405747 21.5314322,10.1166542 19.8012769,11.1116174 C18.1075459,12.0862752 15.9241981,13.4774603 15.6050893,15.3789514 C15.4559608,16.2662426 15.8318176,17.3370838 16.5420919,18.0827718 C17.034876,18.6002916 17.6868186,18.9604447 18.4380042,18.9967806 C20.1797731,19.0796052 21.4712529,17.5468169 22.3354068,16.4174642 C24.6652437,13.3697884 28.1411271,13.5389107 31.8616869,13.1087575 C34.1294969,12.848261 37.5433533,12.4052833 38.6508639,10.3659294 C40.0568955,7.77539156 36.9027603,5.20382323 34.7592681,3.86233288" id="Fill-13" fill="#84BF41"></path>
        <path d="M21,24.5007188 C21,25.8806142 19.8805841,27 18.5004312,27 C17.1191284,27 16,25.8806142 16,24.5007188 C16,23.1193858 17.1191284,22 18.5004312,22 C19.8805841,22 21,23.1193858 21,24.5007188" id="Fill-14" fill="#84BF41"></path>
    </g>
</svg>