<?xml version="1.0" encoding="UTF-8"?>
<svg width="132px" height="34px" viewBox="0 0 132 34" version="1.1" xmlns="http://www.w3.org/2000/svg" xmlns:xlink="http://www.w3.org/1999/xlink">
    <title>WS Logo</title>
    <g id="Main-Nav-" stroke="none" stroke-width="1" fill="none" fill-rule="evenodd">
        <g id="Main-Nav-Full" transform="translate(-21.000000, -37.000000)">
            <g id="Main-Site-Navigation" transform="translate(0.000000, -1.000000)">
                <g id="Main-Nav" transform="translate(0.000000, 32.000000)">
                    <g id="WS-Logo" transform="translate(21.000000, 5.000000)">
                        <g id="negative_master" transform="translate(0.000000, 1.000000)">
                            <path d="M0.54861461,23.7296667 C0.53697733,23.672 0.487435768,23.4603333 0.398992443,23.095 C0.311214106,22.7296667 0.266992443,22.454 0.266992443,22.2686667 C0.266992443,21.8566667 0.396664987,21.5163333 0.65734005,21.2466667 C0.91768262,20.9773333 1.26048363,20.842 1.68574307,20.842 C2.51897229,20.842 3.01638287,21.276 3.1786398,22.1433333 L4.67153652,28.9876667 L4.71043829,28.9876667 L6.78918892,22.339 C6.96241814,21.7993333 7.17953652,21.415 7.43987909,21.186 C7.70022166,20.9566667 8.02839295,20.842 8.42505793,20.842 C8.81873048,20.842 9.1395869,20.956 9.38829219,21.1836667 C9.63699748,21.4113333 9.84846348,21.7966667 10.0220252,22.339 L12.1047657,28.9876667 L12.1396776,28.9876667 L13.6325743,22.1433333 C13.7974912,21.276 14.2949018,20.842 15.1251385,20.842 C15.5560504,20.842 15.9011788,20.9773333 16.1601914,21.2466667 C16.419204,21.5163333 16.5485441,21.8566667 16.5485441,22.2686667 C16.5485441,22.5846667 16.4531184,23.0716667 16.262267,23.7296667 C16.1698338,24.104 16.0278589,24.6836667 15.8370076,25.4693333 C15.6461562,26.2553333 15.3578841,27.437 14.9731889,29.014 C14.5884937,30.591 14.3484332,31.5786667 14.2530076,31.976 C14.0967355,32.666 13.8583375,33.1353333 13.5371486,33.3846667 C13.2159597,33.634 12.8093199,33.7586667 12.3175617,33.7586667 C11.2991335,33.7586667 10.6178539,33.2356667 10.2733904,32.1893333 L8.42505793,26.352 L8.38615617,26.352 L6.55910327,32.1893333 C6.37390428,32.717 6.11921411,33.1106667 5.79536524,33.3696667 C5.47118388,33.6293333 5.0372796,33.7586667 4.49365239,33.7586667 C4.02483627,33.7586667 3.6275063,33.6446667 3.30232746,33.4153333 C2.97681612,33.1863333 2.7400806,32.7543333 2.59278589,32.119 C2.31216121,30.922 2.02056423,29.707 1.71832746,28.4746667 C1.41609068,27.2426667 1.14278086,26.1436667 0.898065491,25.178 C0.65368262,24.2126667 0.525672544,23.7296667 0.514367758,23.7296667 L0.54861461,23.7296667" id="Fill-1" fill="#84BF41"></path>
                            <path d="M17.0981562,32.332 L17.0981562,21.3763333 C17.0981562,20.9706667 17.2311537,20.6256667 17.4974811,20.341 C17.7638086,20.0573333 18.0936423,19.915 18.4873149,19.915 C18.8982771,19.915 19.2317683,20.0566667 19.4877884,20.34 C19.7441411,20.623 19.8724836,20.969 19.8724836,21.3783333 L19.8724836,24.5706667 L19.9113854,24.5706667 C20.7343073,24.1056667 21.5199899,23.8733333 22.2677683,23.8733333 C22.9204534,23.8733333 23.5073048,23.9923333 24.0289874,24.2296667 C24.550005,24.4673333 24.9606348,24.8326667 25.2612091,25.3256667 C25.5614509,25.818 25.711738,26.4263333 25.711738,27.151 L25.711738,32.3326667 C25.711738,32.739 25.5814005,33.0776667 25.3213904,33.3503333 C25.0610479,33.6226667 24.7229018,33.7586667 24.3066196,33.7586667 C23.9136121,33.7586667 23.5904282,33.622 23.3374005,33.3483333 C23.0847053,33.075 22.9583577,32.7366667 22.9583577,32.334 L22.9583577,27.9206667 C22.9583577,27.4226667 22.8190428,27.0196667 22.5404131,26.711 C22.2621159,26.4026667 21.8820756,26.2483333 21.3999597,26.2483333 C20.9411184,26.2483333 20.5720504,26.4033333 20.2920907,26.7133333 C20.012131,27.023 19.8724836,27.4256667 19.8724836,27.9206667 L19.8724836,32.334 C19.8724836,32.7396667 19.7441411,33.0783333 19.4877884,33.3506667 C19.2317683,33.6226667 18.8982771,33.7586667 18.4873149,33.7586667 C18.0906499,33.7586667 17.7601511,33.6216667 17.4951537,33.3476667 C17.2301562,33.074 17.0981562,32.7353333 17.0981562,32.332" id="Fill-2" fill="#84BF41"></path>
                            <path d="M31.3252292,31.2586667 C31.7212292,31.2586667 32.0620353,31.1556667 32.3466499,30.9493333 C32.631597,30.743 32.8460554,30.4613333 32.9910227,30.1046667 C33.1353249,29.7486667 33.2078086,29.3526667 33.2078086,28.9163333 C33.2078086,28.2446667 33.0458841,27.6883333 32.7220353,27.248 C32.3978539,26.8073333 31.9323627,26.5783333 31.3252292,26.561 C30.7151033,26.561 30.2459547,26.787 29.9177834,27.2393333 C29.5896121,27.6913333 29.4256927,28.2506667 29.4256927,28.9163333 C29.4256927,29.5706667 29.5866196,30.126 29.9091385,30.5826667 C30.2316574,31.039 30.679194,31.276 31.2514156,31.2936667 C31.2690378,31.2793333 31.2843325,31.2696667 31.2972997,31.2653333 C31.310267,31.261 31.3192443,31.2586667 31.3252292,31.2586667 Z M31.3252292,33.9463333 C30.3935819,33.9463333 29.5726549,33.7273333 28.8624484,33.289 C28.1522418,32.8513333 27.6059547,32.2486667 27.2242519,31.481 C26.8422166,30.7143333 26.6513652,29.859 26.6513652,28.9163333 C26.6513652,28.2173333 26.7597582,27.5596667 26.9768766,26.9433333 C27.1936625,26.3266667 27.5068715,25.7886667 27.9165038,25.3286667 C28.3258035,24.869 28.8205542,24.5116667 29.4007557,24.2566667 C29.9806247,24.0013333 30.6223375,23.8733333 31.3252292,23.8733333 C32.2452393,23.885 33.0591839,24.119 33.766398,24.5763333 C34.4739446,25.0333333 35.0198992,25.6446667 35.4045945,26.41 C35.7896222,27.1756667 35.982136,28.0113333 35.982136,28.9163333 C35.9731587,29.5923333 35.8604433,30.2316667 35.6433249,30.8353333 C35.426539,31.4386667 35.1136625,31.9753333 34.7060252,32.4453333 C34.2980554,32.9153333 33.8056322,33.283 33.2284232,33.5483333 C32.6508816,33.8133333 32.0168161,33.9463333 31.3252292,33.9463333 L31.3252292,33.9463333 Z" id="Fill-3" fill="#84BF41"></path>
                            <path d="M36.588272,24.532 C36.6344887,22.8033333 37.4876675,21.6216667 39.1478086,20.9863333 C39.810136,20.772 40.5027204,20.665 41.2258942,20.665 C41.6943778,20.665 42.1974408,20.7253333 42.7354156,20.8453333 C43.2733904,20.9653333 43.7372191,21.172 44.1262368,21.4643333 C44.5152544,21.7566667 44.7097632,22.1433333 44.7097632,22.6236667 C44.7097632,23.0116667 44.5874055,23.3223333 44.3430227,23.5553333 C44.0986398,23.7883333 43.7754559,23.9163333 43.373471,23.9393333 C43.1480403,23.9076667 42.7776423,23.819 42.2629421,23.674 C41.7485743,23.5293333 41.3379446,23.4566667 41.0313854,23.4566667 C40.6845945,23.4566667 40.3787003,23.5346667 40.1140353,23.6896667 C39.8497028,23.845 39.6984181,24.0763333 39.6611788,24.384 C39.6611788,24.6946667 39.7492897,24.914 39.9255113,25.0416667 C40.101733,25.1693333 40.4591637,25.325 40.9971385,25.5076667 C41.5118388,25.679 42.0182267,25.849 42.5169673,26.017 C43.0157078,26.1856667 43.4848564,26.4046667 43.9244131,26.6743333 C44.3639698,26.9446667 44.7297128,27.325 45.0216423,27.8153333 C45.3139043,28.306 45.4641914,28.9286667 45.4731688,29.6836667 C45.4731688,30.7863333 45.1705995,31.6953333 44.5661259,32.4093333 C43.6378035,33.434 42.3523829,33.9463333 40.709864,33.9463333 C39.3589421,33.9463333 38.203194,33.6776667 37.2432846,33.1406667 C36.6850277,32.836 36.3827909,32.4016667 36.3365743,31.8386667 C36.3827909,31.435 36.5247657,31.0786667 36.7615013,30.7696667 C36.9985693,30.4603333 37.3197582,30.3053333 37.725068,30.3053333 C37.9967154,30.323 38.2982872,30.3896667 38.6294509,30.5056667 C38.9606146,30.6216667 39.2911134,30.7376667 39.6206146,30.8536667 C39.9504484,30.9693333 40.2540151,31.0363333 40.5319798,31.0533333 C40.6506801,31.0533333 40.7457733,31.0593333 40.8182569,31.071 C41.2172494,31.0626667 41.5716877,30.9616667 41.8812393,30.769 C42.1907909,30.576 42.3454005,30.297 42.3454005,29.931 C42.3454005,29.5573333 42.2001008,29.2676667 41.9095013,29.063 C41.6189018,28.8586667 41.2418539,28.6843333 40.7790227,28.539 C40.7068715,28.513 40.4272443,28.4256667 39.9398086,28.278 C39.4523728,28.1303333 39.0171385,27.974 38.6337733,27.8103333 C38.2504081,27.6463333 37.9112645,27.45 37.6163426,27.2206667 C37.2579144,26.922 36.9969068,26.563 36.8333199,26.144 C36.669733,25.725 36.588272,25.1876667 36.588272,24.532" id="Fill-4" fill="#FFFFFE"></path>
                            <path d="M47.2370479,25.4793333 C48.1770076,24.409 49.4384887,23.8733333 51.0208262,23.8733333 C51.4982872,23.9083333 51.957461,23.9833333 52.3986801,24.0993333 C52.8398992,24.2153333 53.223597,24.409 53.5507708,24.681 C53.8776121,24.953 54.0408665,25.3126667 54.0408665,25.758 C54.0408665,26.0883333 53.9454408,26.3743333 53.7542569,26.616 C53.563073,26.8576667 53.3097128,26.9873333 52.9941763,27.0046667 C52.9446348,27.0046667 52.8970882,27.0163333 52.850539,27.0393333 C52.6653401,27.0193333 52.3597783,26.9343333 51.9338539,26.785 C51.5079295,26.6353333 51.1677884,26.561 50.9127657,26.561 C50.290005,26.561 49.7935919,26.78 49.4228615,27.218 C49.0517985,27.6563333 48.8665995,28.234 48.8665995,28.951 C48.8665995,30.0333333 49.2459748,30.7516667 50.0050579,31.1053333 C50.1639899,31.175 50.4306499,31.235 50.8043728,31.2843333 C51.2821662,31.2523333 51.7210579,31.164 52.1207154,31.019 C52.1842217,31.0013333 52.3032544,30.9616667 52.4768161,30.899 C52.6507103,30.837 52.7753955,30.8056667 52.850539,30.8056667 C53.0649975,30.8056667 53.2638287,30.8633333 53.4480302,30.978 C53.6318992,31.0923333 53.776534,31.2453333 53.8825995,31.4376667 C53.988,31.629 54.0408665,31.8336667 54.0408665,32.0513333 C54.0408665,32.8586667 53.3366448,33.4426667 51.927869,33.8026667 C51.3898942,33.8983333 50.9686247,33.9463333 50.6650579,33.9463333 C50.0083829,33.9463333 49.4015819,33.8133333 48.8446549,33.5483333 C48.287728,33.283 47.8029521,32.9136667 47.3889975,32.4406667 C46.9753753,31.968 46.6561814,31.4343333 46.4320806,30.84 C46.2079798,30.2446667 46.0842922,29.6173333 46.0610176,28.9556667 C46.0842922,28.2623333 46.2,27.608 46.4081411,26.993 C46.6166146,26.3783333 46.8929169,25.8736667 47.2370479,25.4793333" id="Fill-5" fill="#FFFFFE"></path>
                            <path d="M58.9920302,31.2586667 C59.3880302,31.2586667 59.7288363,31.1556667 60.0134509,30.9493333 C60.298398,30.743 60.5128564,30.4613333 60.6578237,30.1046667 C60.8021259,29.7486667 60.8746096,29.3526667 60.8746096,28.9163333 C60.8746096,28.2446667 60.7126851,27.6883333 60.3888363,27.248 C60.0646549,26.8073333 59.5991637,26.5783333 58.9920302,26.561 C58.3819043,26.561 57.9127557,26.787 57.5845844,27.2393333 C57.2564131,27.6913333 57.0924937,28.2506667 57.0924937,28.9163333 C57.0924937,29.5706667 57.2534207,30.126 57.5759395,30.5826667 C57.8984584,31.039 58.3456625,31.276 58.9182166,31.2936667 C58.9358388,31.2793333 58.9511335,31.2696667 58.9641008,31.2653333 C58.977068,31.261 58.9860453,31.2586667 58.9920302,31.2586667 Z M58.9920302,33.9463333 C58.0603829,33.9463333 57.2394559,33.7273333 56.5292494,33.289 C55.8190428,32.8513333 55.2727557,32.2486667 54.8910529,31.481 C54.5090176,30.7143333 54.3181662,29.859 54.3181662,28.9163333 C54.3181662,28.2173333 54.4265592,27.5596667 54.6436776,26.9433333 C54.8604635,26.3266667 55.1736725,25.7886667 55.5833048,25.3286667 C55.9926045,24.869 56.4873552,24.5116667 57.0675567,24.2566667 C57.6474257,24.0013333 58.2891385,23.8733333 58.9920302,23.8733333 C59.9120403,23.885 60.7259849,24.119 61.433199,24.5763333 C62.1407456,25.0333333 62.6867003,25.6446667 63.0713955,26.41 C63.4564232,27.1756667 63.648937,28.0113333 63.648937,28.9163333 C63.6399597,29.5923333 63.5272443,30.2316667 63.3101259,30.8353333 C63.0933401,31.4386667 62.7804635,31.9753333 62.3728262,32.4453333 C61.9648564,32.9153333 61.4724332,33.283 60.8948917,33.5483333 C60.3176826,33.8133333 59.6836171,33.9463333 58.9920302,33.9463333 L58.9920302,33.9463333 Z" id="Fill-6" fill="#FFFFFE"></path>
                            <path d="M64.5573098,25.543 C64.5573098,25.0793333 64.6946297,24.7196667 64.969602,24.4646667 C65.2449068,24.2093333 65.5700856,24.0816667 65.9464685,24.0816667 C66.2590126,24.0816667 66.5412997,24.157 66.79333,24.3066667 C67.0450277,24.457 67.2245743,24.6743333 67.3316373,24.96 C67.9065189,24.2356667 68.5811486,23.8733333 69.3555264,23.8733333 C69.7398892,23.8906667 70.0547607,24.0483333 70.3004736,24.345 C70.5458539,24.6423333 70.6688766,24.9833333 70.6688766,25.3686667 C70.6688766,25.7773333 70.5298942,26.0773333 70.2525945,26.269 C69.9752947,26.46 69.5683224,26.6386667 69.0326751,26.8053333 C68.4966952,26.972 68.1316171,27.1236667 67.9381058,27.2596667 C67.533461,27.5323333 67.3316373,28.0176667 67.3316373,28.716 L67.3316373,32.2243333 C67.3316373,32.7486667 67.186005,33.1356667 66.895073,33.3846667 C66.6041411,33.634 66.2344081,33.7586667 65.7858741,33.7586667 C65.4241209,33.698 65.1288665,33.5406667 64.9001108,33.287 C64.6716877,33.0333333 64.5573098,32.692 64.5573098,32.2626667 L64.5573098,25.543" id="Fill-7" fill="#FFFFFE"></path>
                            <path d="M73.100403,27.915 L76.6723829,27.915 C76.6723829,27.6986667 76.5955768,27.4583333 76.4422972,27.1943333 C76.2890176,26.9303333 76.0742267,26.7063333 75.7979244,26.5233333 C75.5216222,26.34 75.2084131,26.2483333 74.8586297,26.2483333 C74.3662065,26.2483333 73.9505894,26.4376667 73.6107809,26.8156667 C73.2706398,27.1936667 73.100403,27.5603333 73.100403,27.915 Z M78.0957884,29.8213333 L73.100403,29.8213333 C73.100403,30.2026667 73.2726348,30.555 73.6170982,30.8783333 C73.9612292,31.2013333 74.5297935,31.363 75.3227909,31.363 C75.7104786,31.363 76.032,31.315 76.2883526,31.2186667 C76.5443728,31.123 76.878529,30.9766667 77.2908212,30.78 C77.7027809,30.5833333 77.9943778,30.485 78.1652796,30.485 C78.4804836,30.485 78.7491385,30.6006667 78.9705793,30.8313333 C79.1916877,31.0623333 79.3024081,31.3573333 79.3024081,31.7173333 C79.3024081,32.147 79.0912746,32.5323333 78.6686751,32.873 C78.2464081,33.2143333 77.7001209,33.4786667 77.0304786,33.6653333 C76.3605038,33.8526667 75.6729068,33.9463333 74.9670227,33.9463333 C73.9884937,33.9463333 73.1306599,33.7253333 72.3931889,33.2826667 C71.6553854,32.8403333 71.0914761,32.237 70.700796,31.4726667 C70.3101159,30.7083333 70.1149421,29.856 70.1149421,28.9163333 C70.1149421,28.252 70.2326448,27.617 70.4683829,27.0103333 C70.7041209,26.4043333 71.0412695,25.8633333 71.4794962,25.3876667 C71.9180554,24.912 72.4347506,24.5406667 73.0292494,24.2736667 C73.6237481,24.007 74.2694509,23.8733333 74.9670227,23.8733333 C75.8378237,23.8733333 76.613864,24.0943333 77.2951436,24.5363333 C77.9764232,24.9786667 78.5050882,25.564 78.881471,26.293 C79.2575214,27.022 79.4453804,27.7953333 79.4453804,28.6126667 C79.4453804,29.0763333 79.3399798,29.394 79.1285139,29.5646667 C78.9173804,29.7356667 78.5729169,29.8213333 78.0957884,29.8213333 L78.0957884,29.8213333 Z" id="Fill-8" fill="#FFFFFE"></path>
                            <path d="M84.3366952,26.561 C83.739869,26.561 83.2737128,26.789 82.9375617,27.2456667 C82.6017431,27.7023333 82.4338338,28.259 82.4338338,28.9163333 C82.4338338,29.562 82.605733,30.114 82.950529,30.5716667 C83.2956574,31.03 83.7574912,31.2586667 84.3366952,31.2586667 C84.9308615,31.2586667 85.3993451,31.037 85.7424786,30.5936667 C86.0856121,30.1503333 86.2575113,29.591 86.2575113,28.9163333 C86.2575113,28.2273333 86.0899345,27.6623333 85.7554458,27.222 C85.4209572,26.7813333 84.9481511,26.561 84.3366952,26.561 Z M80.3497632,26.175 C80.7005441,25.5076667 81.1816625,24.966 81.7941159,24.55 C82.4062368,24.1336667 83.0698942,23.9083333 83.7850882,23.8733333 C84.7928766,23.8733333 85.6171285,24.1413333 86.2575113,24.6763333 L86.2575113,21.345 C86.2575113,20.91 86.3964937,20.5663333 86.6744584,20.3143333 C86.9520907,20.062 87.276272,19.936 87.64667,19.936 C88.0346902,19.936 88.3621965,20.0643333 88.6301864,20.321 C88.8978438,20.5773333 89.0318388,20.9363333 89.0318388,21.3966667 L89.0318388,32.3326667 C89.0318388,32.6803333 88.9194559,32.9956667 88.6953552,33.2783333 C88.4705894,33.5613333 88.1563829,33.721 87.751073,33.7586667 C87.3600605,33.7586667 87.042529,33.6576667 86.7978136,33.4556667 C86.5534307,33.254 86.3978237,33.0556667 86.3313249,32.8606667 C85.7900252,33.5846667 85.0006851,33.9463333 83.9639698,33.9463333 C83.3096222,33.9463333 82.7181159,33.808 82.1894509,33.5306667 C81.6611184,33.254 81.2122519,32.877 80.8431839,32.3996667 C80.4737834,31.9226667 80.1901662,31.388 79.9916675,30.7963333 C79.7931688,30.2043333 79.6824484,29.591 79.6595063,28.9556667 C79.6970781,27.83 79.9271637,26.9033333 80.3497632,26.175 L80.3497632,26.175 Z" id="Fill-9" fill="#FFFFFE"></path>
                            <path d="M100.531798,25.4793333 C101.472091,24.409 102.733572,23.8733333 104.315577,23.8733333 C104.793038,23.9083333 105.252212,23.9833333 105.693431,24.0993333 C106.134317,24.2153333 106.518348,24.409 106.845521,24.681 C107.17203,24.953 107.335617,25.3126667 107.335617,25.758 C107.335617,26.0883333 107.240191,26.3743333 107.049008,26.616 C106.857824,26.8576667 106.604463,26.9873333 106.288927,27.0046667 C106.239385,27.0046667 106.191506,27.0163333 106.14529,27.0393333 C105.960091,27.0193333 105.654529,26.9343333 105.228272,26.785 C104.80268,26.6353333 104.462539,26.561 104.207516,26.561 C103.584756,26.561 103.08801,26.78 102.71728,27.218 C102.346217,27.6563333 102.16135,28.234 102.16135,28.951 C102.16135,30.0333333 102.540393,30.7516667 103.299809,31.1053333 C103.458741,31.175 103.725068,31.235 104.099123,31.2843333 C104.576917,31.2523333 105.015809,31.164 105.415466,31.019 C105.478972,31.0013333 105.598005,30.9616667 105.771567,30.899 C105.945461,30.837 106.070146,30.8056667 106.14529,30.8056667 C106.359748,30.8056667 106.558579,30.8633333 106.742781,30.978 C106.92665,31.0923333 107.071285,31.2453333 107.17735,31.4376667 C107.282751,31.629 107.335617,31.8336667 107.335617,32.0513333 C107.335617,32.8586667 106.631063,33.4426667 105.22262,33.8026667 C104.684312,33.8983333 104.263375,33.9463333 103.959809,33.9463333 C103.302801,33.9463333 102.696332,33.8133333 102.139406,33.5483333 C101.582811,33.283 101.097703,32.9136667 100.683748,32.4406667 C100.270126,31.968 99.950932,31.4343333 99.7268312,30.84 C99.5027305,30.2446667 99.3790428,29.6173333 99.3557683,28.9556667 C99.3790428,28.2623333 99.4947506,27.608 99.7028917,26.993 C99.9110327,26.3783333 100.187668,25.8736667 100.531798,25.4793333" id="Fill-10" fill="#FFFFFE"></path>
                            <path d="M112.286781,31.2586667 C112.682781,31.2586667 113.023587,31.1556667 113.308202,30.9493333 C113.593149,30.743 113.807607,30.4613333 113.952574,30.1046667 C114.096877,29.7486667 114.16936,29.3526667 114.16936,28.9163333 C114.16936,28.2446667 114.007436,27.6883333 113.683587,27.248 C113.359738,26.8073333 112.893914,26.5783333 112.286781,26.561 C111.676987,26.561 111.207506,26.787 110.879668,27.2393333 C110.551164,27.6913333 110.387244,28.2506667 110.387244,28.9163333 C110.387244,29.5706667 110.548171,30.126 110.871023,30.5826667 C111.193209,31.039 111.640746,31.276 112.2133,31.2936667 C112.230589,31.2793333 112.245884,31.2696667 112.258851,31.2653333 C112.271819,31.261 112.280796,31.2586667 112.286781,31.2586667 Z M112.286781,33.9463333 C111.355466,33.9463333 110.534207,33.7273333 109.824332,33.289 C109.113793,32.8513333 108.567506,32.2486667 108.185804,31.481 C107.804101,30.7143333 107.612917,29.859 107.612917,28.9163333 C107.612917,28.2173333 107.72131,27.5596667 107.938428,26.9433333 C108.155214,26.3266667 108.468756,25.7886667 108.878055,25.3286667 C109.287355,24.869 109.782106,24.5116667 110.362307,24.2566667 C110.942509,24.0013333 111.584222,23.8733333 112.286781,23.8733333 C113.207123,23.885 114.020736,24.119 114.72795,24.5763333 C115.435496,25.0333333 115.981451,25.6446667 116.366146,26.41 C116.751174,27.1756667 116.943688,28.0113333 116.943688,28.9163333 C116.93471,29.5923333 116.822327,30.2316667 116.605209,30.8353333 C116.388091,31.4386667 116.075214,31.9753333 115.667577,32.4453333 C115.259607,32.9153333 114.767184,33.283 114.190307,33.5483333 C113.612766,33.8133333 112.978368,33.9463333 112.286781,33.9463333 L112.286781,33.9463333 Z" id="Fill-11" fill="#FFFFFE"></path>
                            <path d="M117.851728,32.3326667 L117.851728,25.511 C117.851728,25.1113333 117.987718,24.768 118.26003,24.481 C118.53201,24.194 118.858851,24.0503333 119.241219,24.0503333 C119.608625,24.0503333 119.908866,24.1406667 120.141945,24.321 C120.375023,24.5016667 120.53595,24.7153333 120.626055,24.963 C120.854479,24.623 121.19196,24.3563333 121.638166,24.1633333 C122.085038,23.97 122.546539,23.8733333 123.023668,23.8733333 C124.159466,23.8733333 125.017632,24.261 125.598831,25.037 C125.78669,24.9033333 126.021431,24.7383333 126.302055,24.5423333 C126.58268,24.3463333 126.898882,24.186 127.250992,24.061 C127.602106,23.936 128.024373,23.8733333 128.516131,23.8733333 C129.109632,23.9023333 129.645945,24.0306667 130.124736,24.258 C130.603859,24.4856667 130.991547,24.8403333 131.288131,25.323 C131.585048,25.8056667 131.73334,26.415 131.73334,27.151 L131.73334,32.3326667 C131.73334,32.739 131.60533,33.0776667 131.34931,33.3503333 C131.092625,33.6226667 130.759798,33.7586667 130.348504,33.7586667 C129.951839,33.7586667 129.62134,33.622 129.356343,33.3483333 C129.091345,33.075 128.959013,32.7366667 128.959013,32.334 L128.959013,27.9206667 C128.959013,27.4543333 128.83599,27.0593333 128.589945,26.735 C128.343899,26.4106667 128.005421,26.2483333 127.574176,26.2483333 C127.143264,26.2483333 126.803456,26.4113333 126.556081,26.737 C126.308705,27.063 126.185018,27.4576667 126.185018,27.9206667 L126.185018,32.334 C126.185018,32.7396667 126.056675,33.0783333 125.800655,33.3506667 C125.544302,33.6226667 125.211144,33.7586667 124.800181,33.7586667 C124.403184,33.7586667 124.072685,33.622 123.807688,33.3483333 C123.54269,33.075 123.41069,32.7366667 123.41069,32.334 L123.41069,27.9206667 C123.41069,27.4543333 123.286338,27.0593333 123.038297,26.735 C122.789924,26.4106667 122.453773,26.2483333 122.029179,26.2483333 C121.599264,26.2483333 121.257461,26.4113333 121.005098,26.737 C120.752403,27.063 120.626055,27.4576667 120.626055,27.9206667 L120.626055,32.334 C120.626055,32.7396667 120.497713,33.0783333 120.242025,33.3506667 C119.98534,33.6226667 119.652181,33.7586667 119.241219,33.7586667 C118.844554,33.7586667 118.513723,33.6216667 118.249058,33.348 C117.98406,33.0743333 117.851728,32.7356667 117.851728,32.3326667" id="Fill-12" fill="#FFFFFE"></path>
                            <path d="M115.527597,4.87233333 C110.027154,1.46433333 103.236302,0.129 96.9092796,0.0566666667 C90.1922418,-0.02 82.8993249,1.34233333 77.0979748,5.02833333 C74.6122519,6.608 70.0198489,10.2943333 72.4101461,13.5566667 C75.2060856,17.3743333 81.3472443,16.8556667 85.3604433,15.8016667 C87.3972997,15.2693333 93.1005642,13.7533333 92.9399698,11.136 C92.7876877,8.66866667 88.0882217,8.81433333 86.2704786,8.96933333 C83.3930781,9.213 81.7588715,7.338 84.164796,5.728 C88.1846448,3.04166667 106.305552,0.877333333 104.419315,8.74733333 C103.779264,11.412 98.8643426,12.6753333 96.6848463,13.9166667 C94.5512343,15.1326667 91.8008463,16.8683333 91.3988615,19.2406667 C91.2110025,20.3476667 91.6844736,21.6836667 92.5792141,22.614 C93.1999798,23.2596667 94.0212393,23.709 94.9675164,23.7543333 C97.1616423,23.8576667 98.788534,21.9453333 99.8771184,20.5363333 C102.81204,16.734 107.19065,16.945 111.877481,16.4083333 C114.734267,16.0833333 119.034741,15.5306667 120.429884,12.9863333 C122.201078,9.75433333 118.227778,6.546 115.527597,4.87233333" id="Fill-13" fill="#84BF41"></path>
                            <path d="M97.6078489,30.932 C97.6078489,32.5316667 96.3131184,33.8293333 94.7168161,33.8293333 C93.1191839,33.8293333 91.8247859,32.5316667 91.8247859,30.932 C91.8247859,29.3306667 93.1191839,28.033 94.7168161,28.033 C96.3131184,28.033 97.6078489,29.3306667 97.6078489,30.932" id="Fill-14" fill="#84BF41"></path>
                        </g>
                    </g>
                </g>
            </g>
        </g>
    </g>
</svg>